<?xml version="1.0" encoding="UTF-8" standalone="no"?>
<!-- Created with Inkscape (http://www.inkscape.org/) -->

<svg
   xmlns:dc="http://purl.org/dc/elements/1.1/"
   xmlns:cc="http://creativecommons.org/ns#"
   xmlns:rdf="http://www.w3.org/1999/02/22-rdf-syntax-ns#"
   xmlns:svg="http://www.w3.org/2000/svg"
   xmlns="http://www.w3.org/2000/svg"
   xmlns:sodipodi="http://sodipodi.sourceforge.net/DTD/sodipodi-0.dtd"
   xmlns:inkscape="http://www.inkscape.org/namespaces/inkscape"
   version="1.1"
   width="782.91211"
   height="420"
   id="svg3514"
   xml:space="preserve"
   inkscape:version="0.48.4 r9939"
   sodipodi:docname="name.svg"
   inkscape:export-xdpi="90"
   inkscape:export-ydpi="90"><title
     id="title3401">DriveTeX text logos</title><sodipodi:namedview
     pagecolor="#ffffff"
     bordercolor="#666666"
     borderopacity="1"
     objecttolerance="10"
     gridtolerance="10"
     guidetolerance="10"
     inkscape:pageopacity="0"
     inkscape:pageshadow="2"
     inkscape:window-width="1381"
     inkscape:window-height="815"
     id="namedview3570"
     showgrid="false"
     inkscape:zoom="1.1560964"
     inkscape:cx="379.29224"
     inkscape:cy="209.99999"
     inkscape:window-x="236"
     inkscape:window-y="94"
     inkscape:window-maximized="0"
     inkscape:current-layer="svg3514"
     fit-margin-top="10"
     fit-margin-left="10"
     fit-margin-right="10"
     fit-margin-bottom="10" /><metadata
     id="metadata3520"><rdf:RDF><cc:Work
         rdf:about=""><dc:format>image/svg+xml</dc:format><dc:type
           rdf:resource="http://purl.org/dc/dcmitype/StillImage" /><dc:title>DriveTeX text logos</dc:title><cc:license
           rdf:resource="" /><dc:rights><cc:Agent><dc:title>Copyright 2015 Google Inc. All Rights Reserved.</dc:title></cc:Agent></dc:rights></cc:Work></rdf:RDF></metadata><defs
     id="defs3518" /><g
     id="g3092"
     transform="matrix(15.14659,0,0,15.14659,339.40968,232.59156)"><path
       d="m -20.519809,-13.303343 0,7.0596797 1.483688,0 c 1.252617,10e-7 2.168773,-0.2837641 2.748471,-0.8512964 0.583739,-0.5675285 0.875612,-1.4634157 0.875619,-2.6876643 -7e-6,-1.216132 -0.29188,-2.105938 -0.875619,-2.669422 -0.579698,-0.567523 -1.495854,-0.851289 -2.748471,-0.851297 l -1.483688,0 m -1.228299,-1.009394 2.523486,0 c 1.75934,9e-6 3.050472,0.366877 3.873398,1.100605 0.822912,0.72969 1.234371,1.872858 1.23438,3.429508 -9e-6,1.5647669 -0.413495,2.7140158 -1.24046,3.4477504 -0.826981,0.7337368 -2.116086,1.1006046 -3.867318,1.1006046 l -2.523486,0 0,-9.078468"
       style="font-size:12.45324993px;font-variant:normal;font-weight:normal;writing-mode:lr-tb;fill:#000000;fill-opacity:1;fill-rule:nonzero;stroke:none;font-family:CMR10;-inkscape-font-specification:CMR10"
       id="path3056"
       inkscape:connector-curvature="0" /><path
       d="m -8.3373483,-10.998762 c -0.1256726,-0.07296 -0.2635014,-0.125661 -0.4134868,-0.158098 -0.1459411,-0.03648 -0.3080926,-0.05472 -0.4864551,-0.05473 -0.6323952,6e-6 -1.1188498,0.20675 -1.4593648,0.620231 -0.336468,0.409438 -0.5047,0.9992638 -0.504698,1.76948 l 0,3.5876062 -1.124927,0 0,-6.8103712 1.124927,0 0,1.05804 c 0.235118,-0.413481 0.541179,-0.719542 0.918184,-0.918184 0.3769995,-0.202683 0.8350776,-0.304028 1.374236,-0.304034 0.077017,6e-6 0.162147,0.0061 0.2553889,0.01824 0.093232,0.0081 0.1966039,0.0223 0.3101151,0.04256 l 0.00608,1.14925"
       style="font-size:12.45324993px;font-variant:normal;font-weight:normal;writing-mode:lr-tb;fill:#000000;fill-opacity:1;fill-rule:nonzero;stroke:none;font-family:CMR10;-inkscape-font-specification:CMR10"
       id="path3058"
       inkscape:connector-curvature="0" /><path
       d="m -7.4057768,-12.04464 1.1188466,0 0,6.810371 -1.1188466,0 0,-6.810371 m 0,-2.65118 1.1188466,0 0,1.4168 -1.1188466,0 0,-1.4168"
       style="font-size:12.45324993px;font-variant:normal;font-weight:normal;writing-mode:lr-tb;fill:#000000;fill-opacity:1;fill-rule:nonzero;stroke:none;font-family:CMR10;-inkscape-font-specification:CMR10"
       id="path3060"
       inkscape:connector-curvature="0" /><path
       d="m -4.7489153,-12.04464 1.1857342,0 2.1282409,5.7158471 2.12824096,-5.7158471 1.18573434,0 -2.55388927,6.810371 -1.52017213,0 -2.553889,-6.810371"
       style="font-size:12.45324993px;font-variant:normal;font-weight:normal;writing-mode:lr-tb;fill:#000000;fill-opacity:1;fill-rule:nonzero;stroke:none;font-family:CMR10;-inkscape-font-specification:CMR10"
       id="path3062"
       inkscape:connector-curvature="0" /><path
       d="m 8.1031697,-8.9191662 0,0.547262 -5.1442627,0 c 0.048644,0.7702229 0.2797095,1.3580222 0.6931984,1.7633996 0.4175377,0.4013264 0.9972294,0.6019889 1.7390773,0.6019882 0.429697,7e-7 0.84521,-0.052698 1.246541,-0.1580979 0.405373,-0.1053976 0.806698,-0.2634953 1.203976,-0.4742937 l 0,1.0580398 c -0.401332,0.1702594 -0.812791,0.2999806 -1.23438,0.389164 -0.421599,0.089183 -0.849274,0.133775 -1.283025,0.1337752 -1.0864194,-2e-7 -1.9478494,-0.3161957 -2.5842925,-0.9485874 -0.6323926,-0.6323902 -0.9485881,-1.4877395 -0.9485874,-2.5660506 -7e-7,-1.1147884 0.2999796,-1.998514 0.8999419,-2.65118 0.6040128,-0.656708 1.4167974,-0.985065 2.438356,-0.985072 0.916152,7e-6 1.639753,0.295934 2.170806,0.887781 0.535094,0.587805 0.802644,1.3884284 0.802651,2.4018718 m -1.118847,-0.3283572 c -0.00811,-0.612118 -0.180399,-1.1005996 -0.516859,-1.4654456 -0.332416,-0.364836 -0.774278,-0.547256 -1.32559,-0.547262 -0.624287,6e-6 -1.1249299,0.176346 -1.5019296,0.52902 -0.3729511,0.352685 -0.5878019,0.8492738 -0.644553,1.4897683 l 3.9889316,-0.00608"
       style="font-size:12.45324993px;font-variant:normal;font-weight:normal;writing-mode:lr-tb;fill:#000000;fill-opacity:1;fill-rule:nonzero;stroke:none;font-family:CMR10;-inkscape-font-specification:CMR10"
       id="path3064"
       inkscape:connector-curvature="0" /><path
       d="m 6.6020367,-14.312737 7.6799093,0 0,1.033717 -3.222765,0 0,8.044751 -1.2343796,0 0,-8.044751 -3.2227647,0 0,-1.033717"
       style="font-size:12.45324993px;font-variant:normal;font-weight:normal;writing-mode:lr-tb;fill:#000000;fill-opacity:1;fill-rule:nonzero;stroke:none;font-family:CMR10;-inkscape-font-specification:CMR10"
       id="path3066"
       inkscape:connector-curvature="0" /><path
       d="m 14.781893,-11.632738 5.74017,0 0,1.033717 -4.511871,0 0,2.6876648 4.323369,0 0,1.0337171 -4.323369,0 0,3.2896524 4.621323,0 0,1.0337169 -5.849622,0 0,-9.0784682"
       style="font-size:12.45324993px;font-variant:normal;font-weight:normal;writing-mode:lr-tb;fill:#000000;fill-opacity:1;fill-rule:nonzero;stroke:none;font-family:CMR10;-inkscape-font-specification:CMR10"
       id="path3068"
       inkscape:connector-curvature="0" /><path
       d="m 21.262832,-14.312737 1.319509,0 2.255936,3.374782 2.268097,-3.374782 1.319509,0 -2.91873,4.3598538 3.113312,4.7186142 -1.319509,0 -2.55389,-3.8612372 -2.572131,3.8612372 -1.32559,0 3.241007,-4.846309 -2.82752,-4.232159"
       style="font-size:12.45324993px;font-variant:normal;font-weight:normal;writing-mode:lr-tb;fill:#000000;fill-opacity:1;fill-rule:nonzero;stroke:none;font-family:CMR10;-inkscape-font-specification:CMR10"
       id="path3070"
       inkscape:connector-curvature="0" /></g><g
     id="g3102"
     transform="matrix(15.14659,0,0,15.14659,331.57157,232.59156)"><path
       d="m -20.002326,0.96244118 0,7.05967872 1.483688,0 c 1.252617,1e-6 2.168773,-0.283764 2.748471,-0.851296 0.583739,-0.567529 0.875612,-1.4634157 0.875619,-2.6876647 -7e-6,-1.216132 -0.29188,-2.105938 -0.875619,-2.669422 -0.579698,-0.567523 -1.495854,-0.85128802 -2.748471,-0.85129602 l -1.483688,0 m -1.228299,-1.00939505 2.523486,0 c 1.75934,9e-6 3.050471,0.366877 3.873398,1.10060507 0.822911,0.72969 1.234371,1.872858 1.23438,3.429508 -9e-6,1.564767 -0.413495,2.7140157 -1.240461,3.4477507 -0.82698,0.733736 -2.116085,1.100604 -3.867317,1.100604 l -2.523486,0 0,-9.07846777"
       style="font-size:12.45324993px;font-variant:normal;font-weight:normal;writing-mode:lr-tb;fill:#000000;fill-opacity:1;fill-rule:nonzero;stroke:none;font-family:CMR10;-inkscape-font-specification:CMR10"
       id="path3072"
       inkscape:connector-curvature="0" /><path
       d="m -12.976293,-0.04695387 7.6799108,0 0,1.03371705 -3.2227654,0 0,8.04475072 -1.23438,0 0,-8.04475072 -3.2227654,0 0,-1.03371705"
       style="font-size:12.45324993px;font-variant:normal;font-weight:normal;writing-mode:lr-tb;fill:#000000;fill-opacity:1;fill-rule:nonzero;stroke:none;font-family:CMR10;-inkscape-font-specification:CMR10"
       id="path3074"
       inkscape:connector-curvature="0" /><path
       d="m -4.7993782,2.6342962 5.74016999,0 0,1.033717 -4.51187099,0 0,2.6876637 4.32336899,0 0,1.033717 -4.32336899,0 0,3.2896531 4.621323,0 0,1.033717 -5.849622,0 0,-9.0784678"
       style="font-size:12.45324993px;font-variant:normal;font-weight:normal;writing-mode:lr-tb;fill:#000000;fill-opacity:1;fill-rule:nonzero;stroke:none;font-family:CMR10;-inkscape-font-specification:CMR10"
       id="path3076"
       inkscape:connector-curvature="0" /><path
       d="m 1.6815628,-0.04695387 1.319509,0 2.255936,3.37478207 2.268096,-3.37478207 1.31951,0 -2.918731,4.35985407 3.113313,4.7186137 -1.31951,0 -2.553889,-3.8612367 -2.572131,3.8612367 -1.32559,0 3.241007,-4.8463077 -2.82752,-4.23216007"
       style="font-size:12.45324993px;font-variant:normal;font-weight:normal;writing-mode:lr-tb;fill:#000000;fill-opacity:1;fill-rule:nonzero;stroke:none;font-family:CMR10;-inkscape-font-specification:CMR10"
       id="path3078"
       inkscape:connector-curvature="0" /></g></svg>